<svg width="64" height="64" viewBox="0 0 64 64" fill="none" xmlns="http://www.w3.org/2000/svg">
<rect width="63.9902" height="63.9902" rx="31.9951" fill="#F90000"/>
<path d="M32.1999 32.983L40.4486 27.8275L32.1999 23.0001L23.9511 27.8275L32.1999 32.983ZM42.1827 28.015V37.9978C42.1827 38.529 41.9796 38.9977 41.5734 39.4039C41.1985 39.8101 40.7454 40.0132 40.2143 40.0132H24.1855C23.6543 40.0132 23.1856 39.8101 22.7794 39.4039C22.4045 38.9977 22.217 38.529 22.217 37.9978V28.015C22.217 27.2339 22.5295 26.6558 23.1544 26.2809L32.1999 20.9848L41.2453 26.2809C41.8702 26.6558 42.1827 27.2339 42.1827 28.015Z" fill="white" fill-opacity="0.87"/>
</svg>

