<svg width="64" height="64" viewBox="0 0 64 64" fill="none" xmlns="http://www.w3.org/2000/svg">
<rect width="63.9902" height="63.9902" rx="31.9951" fill="#9C27B0"/>
<path d="M33.4179 31.0145C33.9491 31.0145 34.4022 30.8114 34.7771 30.4053C35.1833 29.9991 35.3864 29.5304 35.3864 28.9992C35.3864 28.468 35.1833 27.9994 34.7771 27.5932C34.4022 27.187 33.9491 26.9839 33.4179 26.9839H30.1841V31.0145H33.4179ZM33.1836 23.0001C34.8396 23.0001 36.2456 23.5938 37.4017 24.7811C38.589 25.9372 39.1827 27.3432 39.1827 28.9992C39.1827 30.6552 38.589 32.0769 37.4017 33.2642C36.2456 34.4203 34.8396 34.9983 33.1836 34.9983H30.1841V40.9974H26.2003V23.0001H33.1836Z" fill="white" fill-opacity="0.87"/>
</svg>
