<svg width="64" height="64" viewBox="0 0 64 64" fill="none" xmlns="http://www.w3.org/2000/svg">
<rect width="63.9902" height="63.9902" rx="31.9951" fill="#1565C0"/>
<path d="M29.1996 32.983C29.887 32.983 30.6837 33.0767 31.5898 33.2642C29.9963 34.1391 29.1996 35.2951 29.1996 36.7324V38.9821H22.2163V36.4981C22.2163 35.7794 22.6381 35.1389 23.4817 34.5765C24.3566 34.0141 25.3096 33.6079 26.3406 33.3579C27.3717 33.108 28.3247 32.983 29.1996 32.983ZM33.0896 34.764C34.3394 34.264 35.5424 34.0141 36.6984 34.0141C37.8545 34.0141 39.0574 34.264 40.3073 34.764C41.5571 35.2639 42.182 35.92 42.182 36.7324V38.9821H31.2149V36.7324C31.2149 35.92 31.8398 35.2639 33.0896 34.764ZM31.3086 30.124C30.715 30.7177 30.012 31.0145 29.1996 31.0145C28.3872 31.0145 27.6842 30.7177 27.0905 30.124C26.4969 29.5304 26.2 28.8274 26.2 28.015C26.2 27.2026 26.4969 26.4996 27.0905 25.9059C27.6842 25.3123 28.3872 25.0155 29.1996 25.0155C30.012 25.0155 30.715 25.3123 31.3086 25.9059C31.9023 26.4996 32.1991 27.2026 32.1991 28.015C32.1991 28.8274 31.9023 29.5304 31.3086 30.124ZM38.4325 31.2957C37.9639 31.7644 37.3858 31.9988 36.6984 31.9988C36.011 31.9988 35.4174 31.7644 34.9175 31.2957C34.4488 30.7958 34.2144 30.2022 34.2144 29.5148C34.2144 28.8274 34.4488 28.2337 34.9175 27.7338C35.4174 27.2339 36.011 26.9839 36.6984 26.9839C37.3858 26.9839 37.9639 27.2339 38.4325 27.7338C38.9325 28.2337 39.1824 28.8274 39.1824 29.5148C39.1824 30.2022 38.9325 30.7958 38.4325 31.2957Z" fill="white" fill-opacity="0.87"/>
</svg>
